<?xml version="1.0" ?><!DOCTYPE svg  PUBLIC '-//W3C//DTD SVG 1.1//EN'  'http://www.w3.org/Graphics/SVG/1.1/DTD/svg11.dtd'><svg enable-background="new 0 0 26 26" id="Слой_1" version="1.1" viewBox="0 0 26 26" xml:space="preserve" xmlns="http://www.w3.org/2000/svg" xmlns:xlink="http://www.w3.org/1999/xlink"><g><path d="M24.25,1H1.75C1.3359375,1,1,1.3359375,1,1.75S1.3359375,2.5,1.75,2.5h10.9394531l4.875,4.875   l-5.0947266,5.0947266c-0.2929688,0.2929688-0.2929688,0.7675781,0,1.0605469C12.6162109,13.6767578,12.8076172,13.75,13,13.75   s0.3837891-0.0732422,0.5302734-0.2197266l5.625-5.625c0.2929688-0.2929688,0.2929688-0.7675781,0-1.0605469L14.8105469,2.5H24.25   C24.6640625,2.5,25,2.1640625,25,1.75S24.6640625,1,24.25,1z" fill="#1D1D1B"/><path d="M8.4355469,13l5.0947266-5.0947266c0.2929688-0.2929688,0.2929688-0.7675781,0-1.0605469   s-0.7675781-0.2929688-1.0605469,0l-5.625,5.625c-0.2929688,0.2929688-0.2929688,0.7675781,0,1.0605469l5.625,5.625   C12.6162109,19.3017578,12.8076172,19.375,13,19.375s0.3837891-0.0732422,0.5302734-0.2197266   c0.2929688-0.2929688,0.2929688-0.7675781,0-1.0605469L8.4355469,13z" fill="#1D1D1B"/></g></svg>