<?xml version="1.0" standalone="no"?>
<!DOCTYPE svg PUBLIC "-//W3C//DTD SVG 20010904//EN"
 "http://www.w3.org/TR/2001/REC-SVG-20010904/DTD/svg10.dtd">
<svg version="1.0" xmlns="http://www.w3.org/2000/svg"
 width="267.000000pt" height="350.000000pt" viewBox="0 0 267.000000 350.000000"
 preserveAspectRatio="xMidYMid meet">

<g transform="translate(0.000000,350.000000) scale(0.100000,-0.100000)"
fill="#000000" stroke="none">
<path d="M714 2927 c-319 -265 -591 -493 -606 -506 -27 -24 -28 -28 -28 -125
l0 -101 312 -260 c510 -425 627 -523 743 -619 61 -50 121 -101 135 -113 14
-13 27 -22 31 -21 3 2 43 47 88 101 69 82 81 101 70 111 -8 7 -254 212 -547
456 -293 244 -531 446 -530 450 2 4 76 67 164 141 602 500 914 761 918 768 5
8 -151 201 -163 201 -5 0 -269 -217 -587 -483z"/>
<path d="M1290 2337 c-25 -28 -62 -73 -83 -98 l-37 -46 112 -94 c62 -52 122
-102 133 -111 475 -395 841 -702 843 -707 1 -4 -46 -48 -105 -97 -59 -48 -110
-91 -113 -94 -7 -8 -417 -349 -456 -380 -38 -30 -383 -317 -403 -336 -11 -10
1 -29 73 -113 l88 -101 61 51 c34 29 163 136 286 238 123 102 326 272 451 376
125 105 270 226 324 269 l96 79 -1 106 0 106 -61 50 c-33 28 -91 75 -128 105
-37 30 -282 234 -544 453 -262 218 -479 397 -483 397 -5 0 -28 -24 -53 -53z"/>
</g>
</svg>
